<?xml version="1.0" standalone="no"?>
<!DOCTYPE svg PUBLIC "-//W3C//DTD SVG 20010904//EN"
 "http://www.w3.org/TR/2001/REC-SVG-20010904/DTD/svg10.dtd">
<svg version="1.0" xmlns="http://www.w3.org/2000/svg"
 width="33.000000pt" height="32.000000pt" viewBox="0 0 33.000000 32.000000"
 preserveAspectRatio="xMidYMid meet">

<g transform="translate(0.000000,32.000000) scale(0.100000,-0.100000)"
fill="#f90000" stroke="none">
<path d="M130 305 c0 -4 7 -19 15 -36 l16 -30 -41 21 c-51 26 -73 16 -34 -16
l29 -23 -47 -1 c-35 0 -48 -4 -48 -14 0 -9 12 -16 33 -18 l32 -3 -38 -22 c-20
-12 -37 -29 -37 -38 0 -14 3 -14 30 0 42 22 43 20 18 -25 -17 -30 -20 -42 -11
-51 9 -9 16 -3 30 22 l18 34 3 -47 c4 -59 32 -77 32 -20 l0 37 25 -38 c33 -47
64 -53 40 -7 -18 35 -17 35 30 13 26 -12 38 -14 46 -6 8 8 2 16 -22 30 l-34
18 47 3 c59 4 77 32 20 32 l-37 1 37 22 c22 13 38 30 38 41 0 17 -1 17 -26 1
-33 -22 -39 -14 -19 24 10 20 13 37 7 47 -7 12 -11 10 -22 -13 l-13 -28 -9 43
c-6 25 -15 42 -23 42 -11 0 -13 -8 -8 -30 8 -41 -10 -38 -30 5 -9 19 -23 35
-32 35 -8 0 -15 -2 -15 -5z m70 -90 c53 -27 50 -102 -5 -127 -58 -26 -119 33
-95 92 10 24 39 47 63 49 4 1 21 -6 37 -14z"/>
</g>
</svg>
