<svg width="10" height="6" viewBox="0 0 10 6" fill="none" xmlns="http://www.w3.org/2000/svg">
<path d="M8.97741 0.808125C8.8602 0.690956 8.70126 0.625134 8.53553 0.625134C8.36981 0.625134 8.21086 0.690956 8.09366 0.808125L4.99991 3.90188L1.90616 0.808125C1.78828 0.694277 1.63041 0.63128 1.46653 0.632704C1.30266 0.634128 1.1459 0.699859 1.03002 0.815739C0.914142 0.931619 0.848412 1.08838 0.846988 1.25225C0.845564 1.41612 0.90856 1.574 1.02241 1.69188L4.55803 5.2275C4.67524 5.34467 4.83418 5.41049 4.99991 5.41049C5.16564 5.41049 5.32458 5.34467 5.44178 5.2275L8.97741 1.69188C9.09458 1.57467 9.1604 1.41573 9.1604 1.25C9.1604 1.08427 9.09458 0.92533 8.97741 0.808125Z" fill="#251814"/>
</svg>
